<svg xmlns="http://www.w3.org/2000/svg" viewBox="0 0 64 64" width="64" height="64">
  <defs>
    <linearGradient id="w" x1="0" x2="1" y1="0" y2="0">
      <stop offset="0" stop-color="#2196f3"/>
      <stop offset="1" stop-color="#64b5f6"/>
    </linearGradient>
  </defs>
  <!-- Hull -->
  <path d="M4 38h40l10 8H8z" fill="#263238"/>
  <!-- Deck -->
  <rect x="12" y="26" width="28" height="8" rx="1.5" fill="#546e7a"/>
  <!-- Bridge -->
  <rect x="18" y="20" width="16" height="6" rx="1.2" fill="#90a4ae"/>
  <!-- Chimney -->
  <rect x="22" y="14" width="4" height="6" fill="#b0bec5"/>
  <!-- Windows -->
  <rect x="20" y="22" width="2" height="2" fill="#e3f2fd"/>
  <rect x="24" y="22" width="2" height="2" fill="#e3f2fd"/>
  <rect x="28" y="22" width="2" height="2" fill="#e3f2fd"/>
  <!-- Waves -->
  <path d="M6 50c3 0 3-2 6-2s3 2 6 2 3-2 6-2 3 2 6 2 3-2 6-2 3 2 6 2" fill="none" stroke="url(#w)" stroke-width="2"/>
</svg>
