<svg width="64" height="64" viewBox="0 0 64 64" xmlns="http://www.w3.org/2000/svg" aria-label="car">
  <defs>
    <filter id="carShadow" x="-50%" y="-50%" width="200%" height="200%">
      <feDropShadow dx="0" dy="1.5" stdDeviation="1.5" flood-color="#000" flood-opacity="0.35" />
    </filter>
  </defs>
  <g filter="url(#carShadow)">
    <rect x="10" y="20" width="44" height="24" rx="10" fill="#1976d2"/>
    <rect x="24" y="22" width="20" height="20" rx="6" fill="#90caf9"/>
    <rect x="12" y="22" width="9" height="20" rx="4" fill="#1e88e5"/>
    <rect x="45" y="22" width="7" height="20" rx="4" fill="#1e88e5"/>
    <rect x="18" y="21" width="2" height="22" rx="1" fill="#1565c0"/>
    <rect x="44" y="21" width="2" height="22" rx="1" fill="#1565c0"/>
    <rect x="26" y="19" width="3" height="4" rx="1" fill="#1565c0"/>
    <rect x="26" y="41" width="3" height="4" rx="1" fill="#1565c0"/>
    <circle cx="54" cy="26" r="2.2" fill="#ffd54f"/>
    <circle cx="54" cy="38" r="2.2" fill="#ffd54f"/>
    <circle cx="12" cy="26" r="2.2" fill="#ef5350"/>
    <circle cx="12" cy="38" r="2.2" fill="#ef5350"/>
    <rect x="34" y="22" width="1.5" height="20" fill="#64b5f6" opacity=".7"/>
  </g>
</svg>

